<?xml version="1.0" encoding="UTF-8" standalone="no"?><!DOCTYPE svg PUBLIC "-//W3C//DTD SVG 1.1//EN" "http://www.w3.org/Graphics/SVG/1.1/DTD/svg11.dtd"><svg width="100%" height="100%" viewBox="0 0 164 164" version="1.1" xmlns="http://www.w3.org/2000/svg" xmlns:xlink="http://www.w3.org/1999/xlink" xml:space="preserve" xmlns:serif="http://www.serif.com/" style="fill-rule:evenodd;clip-rule:evenodd;stroke-linejoin:round;stroke-miterlimit:2;"><rect x="0" y="0" width="163.059" height="163.059" style="fill:none;"/><g><g><path d="M52.985,87.571l-15.42,26.935l-37.565,0l56.639,-98.933l37.565,0l-37.763,65.961l16.573,0c9.4,0 17.032,7.387 17.032,16.486c-0,9.099 -7.632,16.486 -17.032,16.486c-9.4,0 -17.032,-7.387 -17.032,-16.486c-0,-3.964 1.449,-7.604 3.861,-10.449l-6.859,-0Z" style="fill:#41be5a;"/></g><g><path d="M110.075,75.488l15.42,-26.935l37.565,0l-56.639,98.933l-37.565,0l37.763,-65.961l-16.573,0c-9.4,0 -17.032,-7.387 -17.032,-16.486c0,-9.099 7.632,-16.486 17.032,-16.486c9.4,0 17.032,7.387 17.032,16.486c-0,3.964 -1.449,7.604 -3.861,10.449l6.859,0Z" style="fill:#41a7be;"/></g></g></svg>